<svg width="94" height="100" viewBox="0 0 94 100" fill="none" xmlns="http://www.w3.org/2000/svg">
<path opacity="0.05" d="M15.5246 75.861C15.5246 79.267 16.2233 81.7123 17.6206 83.197C19.1053 84.5943 21.0266 85.293 23.3846 85.293C25.8299 85.293 27.7513 84.5943 29.1486 83.197C30.5459 81.7123 31.2446 79.267 31.2446 75.861V23.854C31.2446 20.3607 30.5459 17.9153 29.1486 16.518C27.7513 15.0333 25.8299 14.291 23.3846 14.291C21.0266 14.291 19.1053 15.0333 17.6206 16.518C16.2233 17.9153 15.5246 20.3607 15.5246 23.854V75.861ZM0.459586 24.771C0.459586 16.9983 2.42459 11.016 6.35459 6.82399C10.2846 2.632 15.9613 0.535998 23.3846 0.535998C30.8953 0.535998 36.6156 2.632 40.5456 6.82399C44.4756 11.016 46.4406 16.9983 46.4406 24.771V74.813C46.4406 82.5857 44.4756 88.568 40.5456 92.76C36.6156 96.952 30.8953 99.048 23.3846 99.048C15.9613 99.048 10.2846 96.952 6.35459 92.76C2.42459 88.568 0.459586 82.5857 0.459586 74.813V24.771ZM58.86 20.71L81.13 1.715H93.444V98H78.248V21.627L66.982 30.404L58.86 20.71Z" fill="#1D1C1F"/>
</svg>
