<svg width="27" height="26" viewBox="0 0 27 26" fill="none" xmlns="http://www.w3.org/2000/svg">
<path d="M12.2011 1.8345C12.7733 0.675032 14.4267 0.675035 14.9989 1.8345L17.8218 7.55422C18.049 8.01464 18.4882 8.33377 18.9963 8.4076L25.3084 9.3248C26.588 9.51073 27.0989 11.0832 26.173 11.9857L21.6055 16.4379C21.2379 16.7963 21.0701 17.3126 21.1569 17.8187L22.2351 24.1052C22.4537 25.3796 21.1161 26.3514 19.9716 25.7498L14.3259 22.7816C13.8715 22.5427 13.3285 22.5427 12.8741 22.7816L7.22836 25.7498C6.0839 26.3514 4.74631 25.3796 4.96489 24.1053L6.04312 17.8187C6.12991 17.3126 5.96214 16.7963 5.59447 16.4379L1.027 11.9857C0.101111 11.0832 0.612028 9.51073 1.89157 9.3248L8.20366 8.4076C8.71177 8.33377 9.15101 8.01464 9.37824 7.55422L12.2011 1.8345Z" fill="#F2C94C"/>
</svg>
